<svg width="129" height="59" viewBox="0 0 129 59" fill="none" xmlns="http://www.w3.org/2000/svg">
<path d="M2.31 17.7H19.86V39H15.75V21.33H6.42V39H2.31V17.7ZM33.547 39.15C31.987 39.15 30.567 38.85 29.287 38.25C28.027 37.63 26.937 36.82 26.017 35.82C25.117 34.8 24.417 33.64 23.917 32.34C23.417 31.04 23.167 29.71 23.167 28.35C23.167 26.93 23.427 25.57 23.947 24.27C24.487 22.97 25.217 21.82 26.137 20.82C27.077 19.82 28.187 19.03 29.467 18.45C30.747 17.85 32.137 17.55 33.637 17.55C35.177 17.55 36.577 17.87 37.837 18.51C39.117 19.13 40.207 19.95 41.107 20.97C42.007 21.99 42.707 23.15 43.207 24.45C43.707 25.75 43.957 27.07 43.957 28.41C43.957 29.83 43.697 31.19 43.177 32.49C42.657 33.77 41.937 34.91 41.017 35.91C40.097 36.89 38.997 37.68 37.717 38.28C36.437 38.86 35.047 39.15 33.547 39.15ZM27.367 28.35C27.367 29.27 27.507 30.16 27.787 31.02C28.067 31.88 28.467 32.64 28.987 33.3C29.527 33.96 30.177 34.49 30.937 34.89C31.717 35.29 32.597 35.49 33.577 35.49C34.577 35.49 35.457 35.29 36.217 34.89C36.997 34.47 37.647 33.92 38.167 33.24C38.707 32.56 39.107 31.8 39.367 30.96C39.647 30.1 39.787 29.23 39.787 28.35C39.787 27.43 39.637 26.54 39.337 25.68C39.057 24.82 38.647 24.06 38.107 23.4C37.587 22.74 36.937 22.22 36.157 21.84C35.397 21.44 34.537 21.24 33.577 21.24C32.577 21.24 31.687 21.45 30.907 21.87C30.127 22.27 29.477 22.81 28.957 23.49C28.437 24.15 28.037 24.91 27.757 25.77C27.497 26.61 27.367 27.47 27.367 28.35ZM44.4553 35.37H45.2053C45.7853 35.35 46.2953 35.18 46.7353 34.86C47.1753 34.54 47.5653 33.95 47.9053 33.09C48.2453 32.23 48.5453 31.05 48.8053 29.55C49.0653 28.03 49.3053 26.08 49.5253 23.7L50.0653 17.7H62.9653V35.37H66.1153V44.31H62.2453V39H48.3553V44.31H44.4553V35.37ZM58.8253 35.37V21.33H53.8153L53.5153 24.57C53.2753 27.35 52.9353 29.61 52.4953 31.35C52.0753 33.09 51.5253 34.43 50.8453 35.37H58.8253ZM86.7804 17.7L71.9004 39H67.4604L82.3104 17.7H86.7804ZM96.9682 37.38C93.9882 37.08 91.7382 36.11 90.2182 34.47C88.6982 32.81 87.9382 30.69 87.9382 28.11C87.9382 25.55 88.6782 23.43 90.1582 21.75C91.6582 20.07 93.9282 19.06 96.9682 18.72V15.93H100.958V18.72C103.938 19.06 106.158 20.07 107.618 21.75C109.098 23.43 109.838 25.55 109.838 28.11C109.838 30.71 109.088 32.83 107.588 34.47C106.108 36.09 103.898 37.06 100.958 37.38V40.05H96.9682V37.38ZM100.958 33.63C102.618 33.37 103.838 32.77 104.618 31.83C105.418 30.87 105.818 29.6 105.818 28.02C105.818 26.44 105.418 25.19 104.618 24.27C103.838 23.33 102.618 22.75 100.958 22.53V33.63ZM96.9682 22.53C95.2482 22.75 93.9782 23.32 93.1582 24.24C92.3582 25.14 91.9582 26.4 91.9582 28.02C91.9582 29.62 92.3582 30.89 93.1582 31.83C93.9782 32.77 95.2482 33.37 96.9682 33.63V22.53ZM127.808 21.33H120.998V39H116.888V21.33H110.078V17.7H127.808V21.33Z" fill="#273238"/>
<path d="M8.38 8.17C8.38 8.47 8.32 8.73333 8.2 8.96C8.08 9.18667 7.91333 9.37667 7.7 9.53C7.49333 9.68333 7.25 9.8 6.97 9.88C6.69667 9.96 6.40333 10 6.09 10H2.66V2.9H6.46C6.70667 2.9 6.93 2.95333 7.13 3.06C7.33 3.16667 7.5 3.30667 7.64 3.48C7.78 3.64667 7.88667 3.84 7.96 4.06C8.04 4.27333 8.08 4.49 8.08 4.71C8.08 5.05667 7.99333 5.38333 7.82 5.69C7.64667 5.99 7.39333 6.21333 7.06 6.36C7.46667 6.48 7.78667 6.69667 8.02 7.01C8.26 7.31667 8.38 7.70333 8.38 8.17ZM6.99 7.91C6.99 7.78333 6.96667 7.66333 6.92 7.55C6.88 7.43 6.82333 7.32667 6.75 7.24C6.67667 7.15333 6.59 7.08667 6.49 7.04C6.39 6.98667 6.28 6.96 6.16 6.96H4.04V8.83H6.09C6.21667 8.83 6.33333 8.80667 6.44 8.76C6.55333 8.71333 6.65 8.65 6.73 8.57C6.81 8.48333 6.87333 8.38333 6.92 8.27C6.96667 8.15667 6.99 8.03667 6.99 7.91ZM4.04 4.08V5.87H5.88C6.11333 5.87 6.31 5.79 6.47 5.63C6.63667 5.47 6.72 5.25 6.72 4.97C6.72 4.69667 6.64333 4.48 6.49 4.32C6.34333 4.16 6.16 4.08 5.94 4.08H4.04ZM9.12641 6.4C9.12641 5.96667 9.20307 5.54 9.35641 5.12C9.51641 4.69333 9.74641 4.31333 10.0464 3.98C10.3464 3.64667 10.7131 3.37667 11.1464 3.17C11.5797 2.96333 12.0731 2.86 12.6264 2.86C13.2797 2.86 13.8431 3.00333 14.3164 3.29C14.7964 3.57667 15.1531 3.95 15.3864 4.41L14.3264 5.14C14.2331 4.94 14.1197 4.77333 13.9864 4.64C13.8531 4.5 13.7097 4.39 13.5564 4.31C13.4031 4.23 13.2431 4.17333 13.0764 4.14C12.9097 4.1 12.7464 4.08 12.5864 4.08C12.2397 4.08 11.9364 4.15 11.6764 4.29C11.4231 4.43 11.2097 4.61333 11.0364 4.84C10.8697 5.06 10.7431 5.31333 10.6564 5.6C10.5697 5.88 10.5264 6.16 10.5264 6.44C10.5264 6.75333 10.5764 7.05667 10.6764 7.35C10.7764 7.63667 10.9164 7.89 11.0964 8.11C11.2831 8.33 11.5031 8.50667 11.7564 8.64C12.0164 8.77333 12.2997 8.84 12.6064 8.84C12.7664 8.84 12.9331 8.82 13.1064 8.78C13.2797 8.74 13.4431 8.67667 13.5964 8.59C13.7564 8.50333 13.9031 8.39333 14.0364 8.26C14.1697 8.12 14.2764 7.95333 14.3564 7.76L15.4864 8.41C15.3731 8.67667 15.2097 8.91333 14.9964 9.12C14.7897 9.32 14.5531 9.49 14.2864 9.63C14.0264 9.77 13.7464 9.87667 13.4464 9.95C13.1464 10.0233 12.8531 10.06 12.5664 10.06C12.0597 10.06 11.5964 9.95333 11.1764 9.74C10.7564 9.52667 10.3931 9.25 10.0864 8.91C9.78641 8.56333 9.54974 8.17333 9.37641 7.74C9.20974 7.3 9.12641 6.85333 9.12641 6.4ZM21.3719 8.79V10H16.4419V2.9H21.2819V4.11H17.8219V5.82H20.8119V6.94H17.8219V8.79H21.3719ZM30.8494 2.9V10H29.4794V6.97H26.2594V10H24.8794V2.9H26.2594V5.77H29.4794V2.9H30.8494ZM34.3791 2.9H35.5991L38.2991 10H36.8791L36.2191 8.23H33.7391L33.0891 10H31.6691L34.3791 2.9ZM35.9691 7.26L34.9891 4.47L33.9691 7.26H35.9691ZM46.7902 4.11H44.5202V10H43.1502V4.11H40.8802V2.9H46.7902V4.11ZM52.6316 8.79V10H47.7016V2.9H52.5416V4.11H49.0816V5.82H52.0716V6.94H49.0816V8.79H52.6316ZM59.5268 10V5.3L57.6968 8.8H56.9468L55.1168 5.3V10H53.7368V2.9H55.2168L57.3168 6.94L59.4368 2.9H60.9068V10H59.5268ZM63.5977 10.07C63.5244 10.07 63.4444 10.0633 63.3577 10.05C63.2711 10.0433 63.1811 10.03 63.0877 10.01C62.9944 9.99 62.9011 9.96333 62.8077 9.93C62.7211 9.89667 62.6444 9.85667 62.5777 9.81L62.7577 8.67C62.8311 8.71 62.9311 8.75667 63.0577 8.81C63.1911 8.85667 63.3277 8.88 63.4677 8.88C63.6611 8.88 63.8277 8.82667 63.9677 8.72C64.1144 8.60667 64.2411 8.40667 64.3477 8.12L61.7377 2.9H63.2277L64.9677 6.73L66.5877 2.9H68.0377L65.5377 8.3C65.3911 8.62 65.2477 8.89333 65.1077 9.12C64.9677 9.34 64.8211 9.52333 64.6677 9.67C64.5211 9.81 64.3611 9.91333 64.1877 9.98C64.0144 10.04 63.8177 10.07 63.5977 10.07Z" fill="#273238"/>
<path d="M61.14 53.88L64.76 48.9H65.81V56H64.44V51.13L60.87 56H59.77V48.9H61.14V53.88ZM75.7205 48.9V56H74.3505V52.97H71.1305V56H69.7505V48.9H71.1305V51.77H74.3505V48.9H75.7205ZM82.1902 54.79V56H77.2602V48.9H82.1002V50.11H78.6402V51.82H81.6302V52.94H78.6402V54.79H82.1902ZM90.9777 50.11H88.7077V56H87.3377V50.11H85.0677V48.9H90.9777V50.11ZM94.5671 56.05C94.0471 56.05 93.5738 55.95 93.1471 55.75C92.7271 55.5433 92.3638 55.2733 92.0571 54.94C91.7571 54.6 91.5238 54.2133 91.3571 53.78C91.1904 53.3467 91.1071 52.9033 91.1071 52.45C91.1071 51.9767 91.1938 51.5233 91.3671 51.09C91.5471 50.6567 91.7904 50.2733 92.0971 49.94C92.4104 49.6067 92.7804 49.3433 93.2071 49.15C93.6338 48.95 94.0971 48.85 94.5971 48.85C95.1104 48.85 95.5771 48.9567 95.9971 49.17C96.4238 49.3767 96.7871 49.65 97.0871 49.99C97.3871 50.33 97.6204 50.7167 97.7871 51.15C97.9538 51.5833 98.0371 52.0233 98.0371 52.47C98.0371 52.9433 97.9504 53.3967 97.7771 53.83C97.6038 54.2567 97.3638 54.6367 97.0571 54.97C96.7504 55.2967 96.3838 55.56 95.9571 55.76C95.5304 55.9533 95.0671 56.05 94.5671 56.05ZM92.5071 52.45C92.5071 52.7567 92.5538 53.0533 92.6471 53.34C92.7404 53.6267 92.8738 53.88 93.0471 54.1C93.2271 54.32 93.4438 54.4967 93.6971 54.63C93.9571 54.7633 94.2504 54.83 94.5771 54.83C94.9104 54.83 95.2038 54.7633 95.4571 54.63C95.7171 54.49 95.9338 54.3067 96.1071 54.08C96.2871 53.8533 96.4204 53.6 96.5071 53.32C96.6004 53.0333 96.6471 52.7433 96.6471 52.45C96.6471 52.1433 96.5971 51.8467 96.4971 51.56C96.4038 51.2733 96.2671 51.02 96.0871 50.8C95.9138 50.58 95.6971 50.4067 95.4371 50.28C95.1838 50.1467 94.8971 50.08 94.5771 50.08C94.2438 50.08 93.9471 50.15 93.6871 50.29C93.4271 50.4233 93.2104 50.6033 93.0371 50.83C92.8638 51.05 92.7304 51.3033 92.6371 51.59C92.5504 51.87 92.5071 52.1567 92.5071 52.45ZM101.083 51.19C101.009 52.1033 100.909 52.87 100.783 53.49C100.656 54.11 100.483 54.6133 100.263 55C100.043 55.38 99.7692 55.6533 99.4425 55.82C99.1158 55.9867 98.7158 56.07 98.2425 56.07L98.1625 54.83C98.3892 54.81 98.5858 54.7533 98.7525 54.66C98.9258 54.5667 99.0725 54.3833 99.1925 54.11C99.3192 53.8367 99.4258 53.4467 99.5125 52.94C99.5992 52.4267 99.6792 51.7467 99.7525 50.9L99.9225 48.9H104.223V56H102.853V50.11H101.173L101.083 51.19ZM105.776 48.9H107.146V51.4H108.506C108.866 51.4 109.196 51.45 109.496 51.55C109.803 51.65 110.066 51.7967 110.286 51.99C110.506 52.1833 110.676 52.4233 110.796 52.71C110.916 52.99 110.976 53.3133 110.976 53.68C110.976 54.0533 110.916 54.3833 110.796 54.67C110.676 54.9567 110.506 55.2 110.286 55.4C110.073 55.5933 109.816 55.7433 109.516 55.85C109.223 55.95 108.903 56 108.556 56H105.776V48.9ZM107.146 54.83H108.426C108.813 54.83 109.103 54.7267 109.296 54.52C109.489 54.3133 109.586 54.03 109.586 53.67C109.586 53.33 109.486 53.0533 109.286 52.84C109.086 52.62 108.799 52.51 108.426 52.51H107.146V54.83ZM113.357 51.82H113.917L116.077 48.9H117.637L115.087 52.33L117.867 56H116.327L114.047 53.06H113.357V56H111.987V48.9H113.357V51.82ZM121.237 56.05C120.717 56.05 120.244 55.95 119.817 55.75C119.397 55.5433 119.034 55.2733 118.727 54.94C118.427 54.6 118.194 54.2133 118.027 53.78C117.86 53.3467 117.777 52.9033 117.777 52.45C117.777 51.9767 117.864 51.5233 118.037 51.09C118.217 50.6567 118.46 50.2733 118.767 49.94C119.08 49.6067 119.45 49.3433 119.877 49.15C120.304 48.95 120.767 48.85 121.267 48.85C121.78 48.85 122.247 48.9567 122.667 49.17C123.094 49.3767 123.457 49.65 123.757 49.99C124.057 50.33 124.29 50.7167 124.457 51.15C124.624 51.5833 124.707 52.0233 124.707 52.47C124.707 52.9433 124.62 53.3967 124.447 53.83C124.274 54.2567 124.034 54.6367 123.727 54.97C123.42 55.2967 123.054 55.56 122.627 55.76C122.2 55.9533 121.737 56.05 121.237 56.05ZM119.177 52.45C119.177 52.7567 119.224 53.0533 119.317 53.34C119.41 53.6267 119.544 53.88 119.717 54.1C119.897 54.32 120.114 54.4967 120.367 54.63C120.627 54.7633 120.92 54.83 121.247 54.83C121.58 54.83 121.874 54.7633 122.127 54.63C122.387 54.49 122.604 54.3067 122.777 54.08C122.957 53.8533 123.09 53.6 123.177 53.32C123.27 53.0333 123.317 52.7433 123.317 52.45C123.317 52.1433 123.267 51.8467 123.167 51.56C123.074 51.2733 122.937 51.02 122.757 50.8C122.584 50.58 122.367 50.4067 122.107 50.28C121.854 50.1467 121.567 50.08 121.247 50.08C120.914 50.08 120.617 50.15 120.357 50.29C120.097 50.4233 119.88 50.6033 119.707 50.83C119.534 51.05 119.4 51.3033 119.307 51.59C119.22 51.87 119.177 52.1567 119.177 52.45Z" fill="#273238"/>
</svg>
