<svg width="103" height="47" viewBox="0 0 103 47" fill="none" xmlns="http://www.w3.org/2000/svg">
<path d="M1.84017 13.7949H15.8207V30.7627H12.5466V16.6866H5.11424V30.7627H1.84017V13.7949ZM26.7239 30.8822C25.4812 30.8822 24.35 30.6432 23.3303 30.1652C22.3266 29.6713 21.4583 29.0261 20.7254 28.2295C20.0085 27.4169 19.4509 26.4929 19.0526 25.4573C18.6542 24.4217 18.4551 23.3622 18.4551 22.2788C18.4551 21.1476 18.6622 20.0642 19.0764 19.0286C19.5066 17.993 20.0881 17.0769 20.821 16.2803C21.5698 15.4837 22.4541 14.8544 23.4737 14.3924C24.4934 13.9144 25.6007 13.6754 26.7956 13.6754C28.0224 13.6754 29.1376 13.9303 30.1414 14.4402C31.161 14.9341 32.0293 15.5873 32.7463 16.3998C33.4632 17.2124 34.0209 18.1364 34.4192 19.172C34.8175 20.2076 35.0166 21.2591 35.0166 22.3266C35.0166 23.4578 34.8095 24.5412 34.3953 25.5768C33.981 26.5964 33.4075 27.5046 32.6746 28.3012C31.9417 29.0818 31.0654 29.7112 30.0458 30.1891C29.0261 30.6512 27.9188 30.8822 26.7239 30.8822ZM21.8009 22.2788C21.8009 23.0117 21.9124 23.7207 22.1354 24.4057C22.3585 25.0908 22.6771 25.6963 23.0914 26.222C23.5215 26.7478 24.0393 27.17 24.6448 27.4886C25.2661 27.8073 25.9671 27.9666 26.7478 27.9666C27.5444 27.9666 28.2454 27.8073 28.8509 27.4886C29.4722 27.1541 29.99 26.7159 30.4042 26.1742C30.8344 25.6325 31.1531 25.0271 31.3602 24.3579C31.5832 23.6729 31.6948 22.9798 31.6948 22.2788C31.6948 21.5459 31.5753 20.8369 31.3363 20.1518C31.1132 19.4668 30.7866 18.8613 30.3565 18.3356C29.9422 17.8098 29.4244 17.3956 28.8031 17.0929C28.1976 16.7742 27.5126 16.6149 26.7478 16.6149C25.9512 16.6149 25.2422 16.7822 24.6209 17.1168C23.9995 17.4354 23.4817 17.8656 23.0675 18.4073C22.6532 18.933 22.3346 19.5385 22.1115 20.2235C21.9044 20.8927 21.8009 21.5778 21.8009 22.2788ZM35.4136 27.871H36.011C36.473 27.8551 36.8793 27.7196 37.2298 27.4647C37.5803 27.2098 37.891 26.7398 38.1619 26.0547C38.4327 25.3696 38.6717 24.4296 38.8788 23.2347C39.0859 22.0239 39.2771 20.4705 39.4524 18.5746L39.8825 13.7949H50.1588V27.871H52.6681V34.9927H49.5853V30.7627H38.5203V34.9927H35.4136V27.871ZM46.8608 27.871V16.6866H42.8698L42.6308 19.2676C42.4397 21.4822 42.1688 23.2825 41.8183 24.6686C41.4837 26.0547 41.0456 27.1222 40.5039 27.871H46.8608ZM69.1301 13.7949L57.2766 30.7627H53.7396L65.5693 13.7949H69.1301ZM77.2459 29.4722C74.872 29.2332 73.0796 28.4605 71.8687 27.1541C70.6579 25.8317 70.0525 24.1429 70.0525 22.0876C70.0525 20.0483 70.642 18.3595 71.8209 17.0212C73.0159 15.6829 74.8242 14.8783 77.2459 14.6074V12.3849H80.4243V14.6074C82.7982 14.8783 84.5667 15.6829 85.7298 17.0212C86.9087 18.3595 87.4982 20.0483 87.4982 22.0876C87.4982 24.1588 86.9008 25.8476 85.7059 27.1541C84.5269 28.4446 82.7664 29.2173 80.4243 29.4722V31.5991H77.2459V29.4722ZM80.4243 26.4849C81.7467 26.2778 82.7186 25.7998 83.3399 25.051C83.9772 24.2863 84.2959 23.2746 84.2959 22.0159C84.2959 20.7573 83.9772 19.7615 83.3399 19.0286C82.7186 18.2798 81.7467 17.8178 80.4243 17.6425V26.4849ZM77.2459 17.6425C75.8757 17.8178 74.864 18.2718 74.2108 19.0047C73.5735 19.7217 73.2548 20.7254 73.2548 22.0159C73.2548 23.2905 73.5735 24.3022 74.2108 25.051C74.864 25.7998 75.8757 26.2778 77.2459 26.4849V17.6425ZM101.813 16.6866H96.3884V30.7627H93.1143V16.6866H87.6894V13.7949H101.813V16.6866Z" fill="#F0F0F0"/>
<path d="M6.67563 5.5422C6.67563 5.78119 6.62784 5.99096 6.53224 6.17153C6.43665 6.35209 6.30388 6.50345 6.13394 6.62559C5.96931 6.74774 5.77547 6.84068 5.55241 6.90441C5.33467 6.96814 5.101 7 4.8514 7H2.11902V1.34407H5.14614C5.34264 1.34407 5.52055 1.38655 5.67987 1.47153C5.83919 1.5565 5.97462 1.66802 6.08614 1.8061C6.19767 1.93887 6.28264 2.09288 6.34106 2.26814C6.40479 2.43808 6.43665 2.61068 6.43665 2.78593C6.43665 3.06209 6.36761 3.32232 6.22953 3.56661C6.09145 3.80559 5.88965 3.9835 5.62411 4.10034C5.94806 4.19593 6.20298 4.36853 6.38886 4.61814C6.58004 4.86243 6.67563 5.17045 6.67563 5.5422ZM5.56835 5.33508C5.56835 5.23418 5.54976 5.13859 5.51258 5.04831C5.48072 4.95271 5.43558 4.8704 5.37716 4.80136C5.31874 4.73232 5.2497 4.67921 5.17004 4.64203C5.09038 4.59955 5.00275 4.5783 4.90716 4.5783H3.21835V6.06797H4.8514C4.9523 6.06797 5.04524 6.04938 5.13021 6.0122C5.22049 5.97503 5.2975 5.92458 5.36123 5.86085C5.42496 5.79181 5.47541 5.71215 5.51258 5.62186C5.54976 5.53158 5.56835 5.43599 5.56835 5.33508ZM3.21835 2.28407V3.71H4.68411C4.86998 3.71 5.02665 3.64627 5.15411 3.51881C5.28688 3.39136 5.35326 3.2161 5.35326 2.99305C5.35326 2.77531 5.29219 2.60271 5.17004 2.47525C5.05321 2.3478 4.90716 2.28407 4.73191 2.28407H3.21835ZM7.27023 4.1322C7.27023 3.78701 7.3313 3.44712 7.45345 3.11254C7.58091 2.77266 7.76413 2.46994 8.00311 2.20441C8.24209 1.93887 8.53418 1.72379 8.87938 1.55915C9.22458 1.39452 9.61757 1.3122 10.0584 1.3122C10.5788 1.3122 11.0276 1.42638 11.4046 1.65475C11.787 1.88311 12.0711 2.18051 12.257 2.54695L11.4126 3.12847C11.3383 2.96915 11.248 2.83638 11.1418 2.73017C11.0355 2.61864 10.9214 2.53102 10.7992 2.46729C10.6771 2.40356 10.5496 2.35842 10.4168 2.33186C10.2841 2.3 10.154 2.28407 10.0265 2.28407C9.75034 2.28407 9.5087 2.33983 9.30159 2.45136C9.09978 2.56288 8.92983 2.70893 8.79175 2.88949C8.65899 3.06475 8.55808 3.26655 8.48904 3.49492C8.42 3.71797 8.38548 3.94102 8.38548 4.16407C8.38548 4.41367 8.42531 4.65531 8.50498 4.88898C8.58464 5.11734 8.69616 5.31915 8.83955 5.49441C8.98825 5.66966 9.16351 5.8104 9.36531 5.91661C9.57243 6.02282 9.79814 6.07593 10.0424 6.07593C10.1699 6.07593 10.3027 6.06 10.4407 6.02814C10.5788 5.99627 10.7089 5.94582 10.8311 5.87678C10.9585 5.80774 11.0754 5.72011 11.1816 5.6139C11.2878 5.50237 11.3728 5.3696 11.4365 5.21559L12.3367 5.73339C12.2464 5.94582 12.1163 6.13435 11.9463 6.29898C11.7817 6.45831 11.5932 6.59373 11.3807 6.70525C11.1736 6.81678 10.9506 6.90175 10.7116 6.96017C10.4726 7.01859 10.2389 7.0478 10.0106 7.0478C9.60695 7.0478 9.23786 6.96282 8.90328 6.79288C8.5687 6.62294 8.27927 6.40254 8.03498 6.13169C7.79599 5.85554 7.60746 5.54486 7.46938 5.19966C7.33661 4.84915 7.27023 4.49333 7.27023 4.1322ZM17.0251 6.0361V7H13.0978V1.34407H16.9534V2.30797H14.1971V3.67017H16.579V4.56237H14.1971V6.0361H17.0251ZM24.575 1.34407V7H23.4836V4.58627H20.9185V7H19.8192V1.34407H20.9185V3.63034H23.4836V1.34407H24.575ZM27.3868 1.34407H28.3587L30.5095 7H29.3783L28.8526 5.59H26.877L26.3592 7H25.228L27.3868 1.34407ZM28.6534 4.81729L27.8727 2.59475L27.0602 4.81729H28.6534ZM37.2736 2.30797H35.4653V7H34.374V2.30797H32.5657V1.34407H37.2736V2.30797ZM41.9269 6.0361V7H37.9997V1.34407H41.8552V2.30797H39.099V3.67017H41.4808V4.56237H39.099V6.0361H41.9269ZM47.4197 7V3.25593L45.9619 6.04407H45.3644L43.9066 3.25593V7H42.8073V1.34407H43.9863L45.6592 4.56237L47.348 1.34407H48.519V7H47.4197ZM50.6626 7.05576C50.6042 7.05576 50.5405 7.05045 50.4715 7.03983C50.4024 7.03452 50.3307 7.0239 50.2564 7.00797C50.182 6.99203 50.1077 6.97079 50.0333 6.94424C49.9643 6.91768 49.9032 6.88582 49.8501 6.84864L49.9935 5.94051C50.0519 5.97237 50.1316 6.00955 50.2325 6.05203C50.3387 6.08921 50.4476 6.1078 50.5591 6.1078C50.7131 6.1078 50.8459 6.06531 50.9574 5.98034C51.0742 5.89006 51.1751 5.73073 51.2601 5.50237L49.1809 1.34407H50.3679L51.754 4.39508L53.0445 1.34407H54.1996L52.2081 5.64576C52.0912 5.90068 51.9771 6.11842 51.8655 6.29898C51.754 6.47424 51.6372 6.62028 51.515 6.73712C51.3982 6.84864 51.2707 6.93096 51.1326 6.98407C50.9946 7.03186 50.8379 7.05576 50.6626 7.05576Z" fill="#F0F0F0"/>
<path d="M48.7047 41.9552L51.5885 37.9881H52.4249V43.644H51.3336V39.7646L48.4897 43.644H47.6134V37.9881H48.7047V41.9552ZM60.3197 37.9881V43.644H59.2283V41.2303H56.6633V43.644H55.5639V37.9881H56.6633V40.2744H59.2283V37.9881H60.3197ZM65.4736 42.6801V43.644H61.5463V37.9881H65.4019V38.952H62.6456V40.3142H65.0275V41.2064H62.6456V42.6801H65.4736ZM72.4738 38.952H70.6655V43.644H69.5741V38.952H67.7658V37.9881H72.4738V38.952ZM75.3331 43.6839C74.9189 43.6839 74.5418 43.6042 74.2019 43.4449C73.8674 43.2803 73.5779 43.0652 73.3336 42.7996C73.0946 42.5288 72.9088 42.2208 72.776 41.8756C72.6432 41.5304 72.5768 41.1772 72.5768 40.8161C72.5768 40.439 72.6459 40.0779 72.784 39.7327C72.9274 39.3875 73.1212 39.0821 73.3655 38.8166C73.6151 38.551 73.9098 38.3413 74.2497 38.1873C74.5896 38.0279 74.9587 37.9483 75.357 37.9483C75.7659 37.9483 76.1377 38.0333 76.4723 38.2032C76.8122 38.3678 77.1016 38.5856 77.3406 38.8564C77.5796 39.1273 77.7654 39.4353 77.8982 39.7805C78.031 40.1257 78.0974 40.4762 78.0974 40.832C78.0974 41.2091 78.0283 41.5702 77.8902 41.9154C77.7522 42.2553 77.561 42.558 77.3167 42.8235C77.0724 43.0838 76.7803 43.2935 76.4404 43.4529C76.1005 43.6069 75.7314 43.6839 75.3331 43.6839ZM73.6921 40.8161C73.6921 41.0604 73.7293 41.2967 73.8036 41.5251C73.878 41.7534 73.9842 41.9552 74.1223 42.1305C74.2657 42.3057 74.4383 42.4465 74.6401 42.5527C74.8472 42.6589 75.0809 42.712 75.3411 42.712C75.6066 42.712 75.8403 42.6589 76.0421 42.5527C76.2492 42.4412 76.4218 42.2951 76.5599 42.1146C76.7033 41.934 76.8095 41.7322 76.8785 41.5091C76.9529 41.2808 76.9901 41.0497 76.9901 40.8161C76.9901 40.5718 76.9502 40.3355 76.8706 40.1071C76.7962 39.8787 76.6874 39.6769 76.544 39.5017C76.4059 39.3264 76.2333 39.1883 76.0262 39.0874C75.8244 38.9812 75.596 38.9281 75.3411 38.9281C75.0755 38.9281 74.8392 38.9839 74.6321 39.0954C74.425 39.2016 74.2524 39.345 74.1143 39.5256C73.9762 39.7008 73.87 39.9026 73.7957 40.131C73.7266 40.354 73.6921 40.5824 73.6921 40.8161ZM80.5233 39.8123C80.4649 40.5399 80.3853 41.1507 80.2844 41.6446C80.1835 42.1384 80.0454 42.5394 79.8701 42.8474C79.6949 43.1501 79.4771 43.3679 79.2169 43.5007C78.9567 43.6334 78.638 43.6998 78.261 43.6998L78.1972 42.712C78.3778 42.6961 78.5345 42.6509 78.6672 42.5766C78.8053 42.5022 78.9222 42.3562 79.0178 42.1384C79.1187 41.9207 79.2036 41.61 79.2727 41.2064C79.3417 40.7975 79.4054 40.2558 79.4639 39.5813L79.5993 37.9881H83.0247V43.644H81.9333V38.952H80.595L80.5233 39.8123ZM84.2621 37.9881H85.3535V39.9796H86.4369C86.7237 39.9796 86.9865 40.0195 87.2255 40.0991C87.4698 40.1788 87.6796 40.2956 87.8548 40.4496C88.0301 40.6036 88.1655 40.7948 88.2611 41.0232C88.3567 41.2462 88.4045 41.5038 88.4045 41.7959C88.4045 42.0933 88.3567 42.3562 88.2611 42.5846C88.1655 42.8129 88.0301 43.0068 87.8548 43.1661C87.6849 43.3201 87.4804 43.4396 87.2414 43.5246C87.0078 43.6042 86.7529 43.644 86.4767 43.644H84.2621V37.9881ZM85.3535 42.712H86.3731C86.6812 42.712 86.9122 42.6297 87.0662 42.4651C87.2202 42.3004 87.2972 42.0747 87.2972 41.7879C87.2972 41.5171 87.2175 41.2967 87.0582 41.1268C86.8989 40.9515 86.6705 40.8639 86.3731 40.8639H85.3535V42.712ZM90.3012 40.3142H90.7473L92.468 37.9881H93.7107L91.6793 40.7205L93.8939 43.644H92.6671L90.8508 41.302H90.3012V43.644H89.2098V37.9881H90.3012V40.3142ZM96.5787 43.6839C96.1644 43.6839 95.7874 43.6042 95.4475 43.4449C95.1129 43.2803 94.8235 43.0652 94.5792 42.7996C94.3402 42.5288 94.1543 42.2208 94.0215 41.8756C93.8888 41.5304 93.8224 41.1772 93.8224 40.8161C93.8224 40.439 93.8914 40.0779 94.0295 39.7327C94.1729 39.3875 94.3667 39.0821 94.611 38.8166C94.8606 38.551 95.1554 38.3413 95.4953 38.1873C95.8352 38.0279 96.2042 37.9483 96.6026 37.9483C97.0115 37.9483 97.3832 38.0333 97.7178 38.2032C98.0577 38.3678 98.3471 38.5856 98.5861 38.8564C98.8251 39.1273 99.011 39.4353 99.1437 39.7805C99.2765 40.1257 99.3429 40.4762 99.3429 40.832C99.3429 41.2091 99.2739 41.5702 99.1358 41.9154C98.9977 42.2553 98.8065 42.558 98.5622 42.8235C98.3179 43.0838 98.0258 43.2935 97.6859 43.4529C97.3461 43.6069 96.977 43.6839 96.5787 43.6839ZM94.9376 40.8161C94.9376 41.0604 94.9748 41.2967 95.0492 41.5251C95.1235 41.7534 95.2297 41.9552 95.3678 42.1305C95.5112 42.3057 95.6838 42.4465 95.8856 42.5527C96.0927 42.6589 96.3264 42.712 96.5866 42.712C96.8522 42.712 97.0858 42.6589 97.2876 42.5527C97.4948 42.4412 97.6674 42.2951 97.8054 42.1146C97.9488 41.934 98.055 41.7322 98.1241 41.5091C98.1984 41.2808 98.2356 41.0497 98.2356 40.8161C98.2356 40.5718 98.1958 40.3355 98.1161 40.1071C98.0418 39.8787 97.9329 39.6769 97.7895 39.5017C97.6514 39.3264 97.4788 39.1883 97.2717 39.0874C97.0699 38.9812 96.8415 38.9281 96.5866 38.9281C96.3211 38.9281 96.0848 38.9839 95.8776 39.0954C95.6705 39.2016 95.4979 39.345 95.3598 39.5256C95.2218 39.7008 95.1155 39.9026 95.0412 40.131C94.9722 40.354 94.9376 40.5824 94.9376 40.8161Z" fill="#F0F0F0"/>
</svg>
